<svg xmlns="http://www.w3.org/2000/svg" width="200" height="104" viewBox="0 0 200 104"><path d="M.005 91.036V57.842h17.084c3.166 0 5.59.272 7.262.817 1.675.542 3.025 1.552 4.05 3.024 1.027 1.472 1.539 3.267 1.539 5.382 0 1.841-.393 3.431-1.179 4.769-.785 1.334-1.864 2.42-3.24 3.251-.88.527-2.081.967-3.607 1.311 1.221.41 2.11.819 2.665 1.225.378.273.925.852 1.64 1.745.715.887 1.195 1.575 1.435 2.061l4.968 9.609h-11.59l-5.467-10.135c-.693-1.314-1.31-2.162-1.852-2.557a4.311 4.311 0 00-2.506-.767h-.906v13.46H.005zm10.297-19.735h4.322c.465 0 1.37-.152 2.714-.455A2.689 2.689 0 0019 69.803c.429-.56.643-1.199.643-1.927 0-1.071-.339-1.894-1.018-2.467-.677-.575-1.95-.863-3.82-.863h-4.502v6.755zM65.704 57.842v25.673H43.876v-6.562h15.998v-6.754H43.876v-5.268H61.12v-7.089H33.577v33.194h42.425V57.842zM81.42 57.842h15.221c2.998 0 5.424.409 7.271 1.225 1.845.816 3.372 1.984 4.581 3.508 1.206 1.526 2.08 3.298 2.621 5.321.545 2.023.816 4.165.816 6.43 0 3.546-.403 6.299-1.21 8.253-.805 1.956-1.927 3.593-3.36 4.914-1.43 1.32-2.967 2.2-4.613 2.637-2.247.604-4.281.906-6.106.906H81.42V57.842zm10.251 7.521v18.152h2.509c2.137 0 3.655-.237 4.559-.715.904-.475 1.612-1.304 2.124-2.493.514-1.184.768-3.108.768-5.765 0-3.522-.572-5.932-1.716-7.231-1.144-1.299-3.039-1.949-5.692-1.949h-2.552zM197.111 90.841l-.132-2.096c.343-.04.602-.136.78-.274.289-.228.433-.552.433-.972 0-.316-.074-.556-.22-.724a.663.663 0 00-.514-.255.655.655 0 00-.498.24c-.148.162-.283.535-.414 1.125-.219.966-.506 1.655-.87 2.065a1.737 1.737 0 01-1.376.622 1.87 1.87 0 01-1.035-.318c-.329-.21-.584-.531-.772-.958-.185-.426-.278-1.009-.278-1.751 0-.913.169-1.606.506-2.083.337-.479.88-.764 1.613-.852l.124 2.08c-.322.054-.556.17-.702.348-.146.175-.219.418-.219.731 0 .255.054.448.165.577a.504.504 0 00.397.194c.113 0 .214-.055.306-.165.096-.104.182-.348.262-.738.209-.964.419-1.652.631-2.07.213-.415.476-.719.792-.906a1.981 1.981 0 011.055-.286c.456 0 .879.127 1.265.38.387.251.678.607.879 1.06.196.453.299 1.025.299 1.716 0 1.211-.235 2.052-.701 2.518-.463.466-1.057.731-1.776.792zM192.339 84.005v-2.093l3.971-.755-3.971-1.103v-2.075l3.96-1.102-3.96-.759v-2.08l7.127 1.569v2.16l-4.486 1.25 4.486 1.244v2.161l-7.127 1.583zM192.339 73.216v-2.205h7.127v2.205h-7.127zM197.111 69.82l-.132-2.095c.343-.046.602-.138.78-.277.289-.228.433-.552.433-.971 0-.314-.074-.557-.22-.727-.147-.17-.321-.256-.514-.256-.185 0-.352.081-.498.243-.148.159-.283.534-.414 1.125-.219.966-.506 1.654-.87 2.066-.357.413-.815.62-1.376.62-.364 0-.708-.105-1.035-.318-.329-.213-.584-.53-.772-.958-.185-.426-.278-1.009-.278-1.751 0-.912.169-1.605.506-2.083.337-.477.88-.764 1.613-.854l.124 2.083c-.322.055-.556.169-.702.347-.146.175-.219.419-.219.728 0 .258.054.451.165.58a.498.498 0 00.397.194c.113 0 .214-.054.306-.163.096-.106.182-.352.262-.74.209-.963.419-1.654.631-2.066.213-.415.476-.72.792-.91a2.025 2.025 0 011.055-.283c.456 0 .879.127 1.265.379.387.251.678.606.879 1.06.196.453.299 1.025.299 1.714 0 1.213-.235 2.052-.701 2.518-.463.467-1.057.734-1.776.795zM197.111 62.629l-.132-2.096c.343-.045.602-.138.78-.275.289-.228.433-.55.433-.972 0-.313-.074-.557-.22-.727a.669.669 0 00-.514-.254c-.185 0-.352.081-.498.24-.148.162-.283.534-.414 1.125-.219.966-.506 1.654-.87 2.066a1.732 1.732 0 01-1.376.623c-.364 0-.708-.105-1.035-.318-.329-.216-.584-.531-.772-.959-.185-.425-.278-1.01-.278-1.752 0-.91.169-1.605.506-2.081.337-.479 1.063-.735 1.799-.827l-.062 2.054c-.322.055-.556.171-.702.349-.146.175-.219.418-.219.727 0 .258.054.449.165.579.106.13.241.194.397.194.113 0 .214-.055.306-.162.096-.105.182-.352.262-.742.209-.96.419-1.651.631-2.066.213-.415.476-.72.792-.909a2.008 2.008 0 011.055-.285c.456 0 .879.128 1.265.379.387.254.678.607.879 1.06.196.453.299 1.026.299 1.716 0 1.214-.235 2.053-.701 2.52-.463.467-1.057.731-1.776.793z" fill="#006db1"/><linearGradient id="a" gradientUnits="userSpaceOnUse" x1="105.906" y1="-.019" x2="119.213" y2="32.896"><stop offset="0" stop-color="#edf4fa"/><stop offset="1" stop-color="#006db1"/></linearGradient><path d="M117.612 36.114a23.933 23.933 0 003.175-11.947c0-9.789-5.853-18.214-14.249-21.965l.003-.005c.013.009.023.018.035.028 5.463 4.407 8.956 11.157 8.956 18.723a23.94 23.94 0 01-3.259 12.097l5.339 3.069z" fill="url(#a)"/><linearGradient id="b" gradientUnits="userSpaceOnUse" x1="99.584" y1="2.539" x2="112.889" y2="35.453"><stop offset="0" stop-color="#edf4fa"/><stop offset="1" stop-color="#006db1"/></linearGradient><path d="M109.929 35.305a23.944 23.944 0 003.172-11.947c0-9.79-5.851-18.215-14.246-21.966l.004-.005c.01.009.022.018.031.028 5.465 4.407 8.96 11.158 8.96 18.724 0 4.409-1.188 8.542-3.26 12.096l5.339 3.07z" fill="url(#b)"/><linearGradient id="c" gradientUnits="userSpaceOnUse" x1="70.528" y1="29.021" x2="92.937" y2=".426"><stop offset="0" stop-color="#edf4fa"/><stop offset="1" stop-color="#006db1"/></linearGradient><path d="M96.662 0A23.923 23.923 0 0084.73 3.224C76.251 8.12 71.881 17.399 72.832 26.546l-.007-.001.007-.044c1.086-6.934 5.183-13.335 11.736-17.119a23.952 23.952 0 0112.107-3.226L96.662 0z" fill="url(#c)"/><linearGradient id="d" gradientUnits="userSpaceOnUse" x1="76.066" y1="33.362" x2="98.477" y2="4.765"><stop offset="0" stop-color="#edf4fa"/><stop offset="1" stop-color="#006db1"/></linearGradient><path d="M99.899 7.278a23.932 23.932 0 00-11.934 3.226C79.488 15.4 75.118 24.678 76.067 33.826h-.007l.007-.044c1.086-6.935 5.183-13.337 11.736-17.12a23.945 23.945 0 0112.107-3.224l-.011-6.16z" fill="url(#d)"/><linearGradient id="e" gradientUnits="userSpaceOnUse" x1="114.812" y1="43.714" x2="77.928" y2="39.512"><stop offset="0" stop-color="#edf4fa"/><stop offset="1" stop-color="#006db1"/></linearGradient><path d="M75.93 36.264a23.961 23.961 0 008.759 8.72c8.48 4.896 18.7 4.041 26.147-1.357l.003.007a.519.519 0 01-.04.015c-6.55 2.528-14.14 2.18-20.695-1.603a23.943 23.943 0 01-8.847-8.872l-5.327 3.09z" fill="url(#e)"/><linearGradient id="f" gradientUnits="userSpaceOnUse" x1="115.598" y1="37.065" x2="78.715" y2="32.863"><stop offset="0" stop-color="#edf4fa"/><stop offset="1" stop-color="#006db1"/></linearGradient><path d="M80.649 30.063a23.956 23.956 0 008.759 8.721c8.48 4.895 18.7 4.04 26.148-1.356v.005l-.042.015c-6.547 2.528-14.14 2.179-20.692-1.604a23.958 23.958 0 01-8.847-8.872l-5.326 3.091z" fill="url(#f)"/><path d="M3.152 103.91l-.699.001-.016-3.569H.711l.016 3.57H.028L0 96.993l.699-.001.01 2.762 1.728-.001-.012-2.762.699.002.028 6.917zM8.197 103.911h-.7l-.028-6.918.697-.001.031 6.919zM13.943 100.256h1.717l.005 1.275c.006 1.091-.049 2.469-1.608 2.469-1.586 0-1.743-1.533-1.753-3.715-.007-1.635.197-3.387 1.794-3.387.9.001 1.35.55 1.543 1.303l-.688.246c-.082-.412-.273-.925-.822-.926-1.039.011-1.113 1.487-1.107 2.709.009 2.559.36 3.146 1.092 3.145.788.001.856-.532.85-2.009l-.003-.523h-1.02v-.587zM22.923 103.906h-.699l-.016-3.569h-1.727l.016 3.57h-.699l-.028-6.918h.698l.013 2.761h1.726l-.012-2.762.699-.001.029 6.919zM32.489 103.905l-.027-6.919h.778c1.078 0 2.037.09 2.043 1.798.007 1.339-.5 1.807-1.93 1.807l-.178.001.013 3.313h-.699zm.684-3.901h.268c.981 0 1.098-.331 1.124-1.221-.002-.954-.283-1.211-1.262-1.211l-.14.001.01 2.431zM41.55 97.57l-1.666.001.01 2.44h1.617l.003.588h-1.619l.012 2.717 1.667-.001.002.587h-2.367l-.028-6.918h2.369v.586zM45.73 103.9l-.025-6.918h.747c1.049 0 2.057.073 2.065 1.762.005.881-.204 1.744-1.411 1.78l1.681 3.377h-.739l-1.612-3.387h-.019l.015 3.387-.702-.001zm.683-3.908h.251c.978 0 1.137-.312 1.132-1.22-.004-1.093-.364-1.204-1.253-1.202l-.139-.001.009 2.423zM55.061 97.567l-1.708-.001.009 2.441h1.619l.003.588h-1.619l.015 3.302-.699.001-.028-6.918h2.406l.002.587zM62.712 100.437c.006 1.295-.084 3.552-1.833 3.552-1.647.001-1.854-1.935-1.861-3.55-.008-1.752.234-3.55 1.833-3.552 1.697 0 1.855 2.028 1.861 3.55zm-2.975.002c.004 1.219.064 2.927 1.139 2.926 1.081 0 1.123-1.708 1.118-2.927-.005-1.219-.063-2.927-1.14-2.926-1.082-.046-1.122 1.706-1.117 2.927zM66.85 103.895l-.028-6.917.75-.001c1.047 0 2.056.073 2.062 1.762.005.881-.201 1.744-1.41 1.78l1.682 3.377-.739.001-1.612-3.387h-.019l.014 3.386-.7-.001zm.683-3.908h.251c.977 0 1.137-.312 1.132-1.22-.004-1.093-.364-1.203-1.253-1.202l-.14-.001.01 2.423zM78.585 103.893l-.689.001-.551-5.102c-.022-.22-.032-.43-.043-.651h-.039c-.06.459-.076.91-.164 1.367l-.801 4.387h-.569l-.85-5.102c-.042-.22-.063-.431-.092-.652h-.03c-.018.451-.006.919-.066 1.359l-.58 4.396-.68.001 1.031-6.919.599-.001.871 5.156c.039.229.062.458.093.688h.028c.048-.394.077-.796.145-1.19l.84-4.654.599.001.948 6.915zM85.604 103.891l-.75.001-.285-1.423h-1.597l-.265 1.423h-.747l1.449-6.92.66.001 1.535 6.918zm-1.146-1.982l-.51-2.652c-.092-.466-.135-.943-.196-1.413h-.04c-.068.467-.116.945-.192 1.413l-.431 2.653 1.369-.001zM92.483 103.89h-.608l-1.717-4.653c-.111-.285-.173-.595-.264-.889l-.04-.001c.033.449.084.891.087 1.339l.017 4.203-.608.001-.028-6.92.61.001 1.746 4.808c.09.238.162.477.232.716h.031c-.02-.304-.072-.615-.073-.917l-.02-4.607.61-.001.025 6.92zM99.604 103.696a1.92 1.92 0 01-.959.283c-1.767.001-2.034-2.118-2.04-3.302-.003-1.119.025-3.799 2.08-3.798.281-.001.66.064.89.219l.004.707c-.281-.174-.53-.302-.881-.303-1.218.001-1.381 1.625-1.375 2.91.003.807.011 2.944 1.349 2.944.34.001.659-.138.929-.313l.003.653zM105.988 97.555l-1.669.001.01 2.441 1.619-.002v.588l-1.616-.001.011 2.717 1.667-.001.003.588h-2.369l-.028-6.918 2.367-.002.005.589zM120.175 103.883l-.691.001-.55-5.101a12.96 12.96 0 01-.041-.652h-.04c-.06.459-.078.91-.166 1.367l-.8 4.387h-.569l-.85-5.102c-.042-.221-.063-.431-.094-.651h-.028c-.019.449-.007.918-.066 1.359l-.581 4.395-.68.001 1.032-6.92.599-.001.87 5.156c.04.229.062.46.093.688l.028.001c.049-.395.077-.798.146-1.192l.84-4.653h.599l.949 6.917zM127.194 103.881l-.75.001-.284-1.423h-1.598l-.265 1.423-.747-.001 1.449-6.918.66.001 1.535 6.917zm-1.147-1.981l-.509-2.652c-.093-.468-.136-.945-.196-1.414h-.04c-.068.468-.115.946-.194 1.413l-.429 2.653h1.368zM133.703 103.688a1.884 1.884 0 01-.959.284c-1.766 0-2.034-2.119-2.038-3.303-.006-1.12.023-3.798 2.08-3.798.281 0 .66.064.89.219l.004.707c-.281-.174-.532-.302-.881-.303-1.219.001-1.381 1.626-1.376 2.91.003.807.011 2.946 1.35 2.944.34.001.659-.138.929-.312l.001.652zM140.874 103.878h-.699l-.016-3.569-1.726.001.013 3.569h-.697l-.029-6.918.699-.001.012 2.762 1.728.001-.012-2.762h.699l.028 6.917zM145.916 103.877h-.699l-.028-6.918.699-.001.028 6.919zM153.394 103.876l-.608-.001-1.717-4.651c-.109-.285-.17-.597-.264-.89h-.038c.031.449.083.89.084 1.339l.018 4.203-.61.001-.028-6.919.61.001 1.746 4.808c.09.238.162.477.233.716h.03c-.021-.305-.073-.615-.072-.918l-.02-4.606.61-.001.026 6.918zM160.089 97.542l-1.668.001.011 2.441h1.619l.002.587-1.617.002.011 2.714 1.666.001.003.587-2.366.002-.029-6.919h2.366l.002.584zM171.902 97.539l-1.128.001.026 6.331-.7.001-.025-6.331h-1.129l-.002-.588 2.954-.002.004.588zM179.203 100.411c.004 1.293-.085 3.55-1.832 3.55-1.648.001-1.857-1.935-1.862-3.551-.008-1.752.236-3.55 1.832-3.55 1.698 0 1.857 2.027 1.862 3.551zm-2.975 0c.006 1.219.061 2.927 1.14 2.927s1.121-1.708 1.118-2.928c-.006-1.221-.064-2.927-1.142-2.926-1.078-.046-1.121 1.707-1.116 2.927zM186.803 100.407c.007 1.295-.085 3.552-1.832 3.553-1.648-.001-1.858-1.937-1.864-3.551-.006-1.752.236-3.551 1.832-3.55 1.698-.002 1.858 2.027 1.864 3.548zm-2.976.002c.005 1.219.062 2.927 1.14 2.926 1.079 0 1.122-1.708 1.117-2.927-.004-1.221-.063-2.927-1.142-2.926-1.078-.046-1.119 1.707-1.115 2.927zM191.639 103.279l1.636-.001.003.588h-2.338l-.028-6.919h.699l.028 6.332zM199.615 98.038c-.301-.311-.631-.559-1.112-.559-.699.001-1.086.532-1.084 1.12.004.807.646 1.184 1.295 1.588.642.412 1.281.853 1.285 1.806.004 1.01-.701 1.965-1.878 1.966-.419 0-.85-.112-1.189-.35l-.004-.834c.32.311.74.56 1.22.559.739 0 1.146-.597 1.135-1.221.005-.807-.645-1.165-1.285-1.577-.64-.404-1.293-.854-1.295-1.845-.005-.927.611-1.834 1.72-1.835.448 0 .829.137 1.189.367l.003.815zM180.259 51.163h-5.22V46.13h6.658v-6.658h5.062v.001h1.598v-1.6H180.1v6.658h-6.658l-.005 8.255h6.822v-1.623zm8.098-6.632v-.014h-1.598v1.612h6.656v5.059h-6.656v6.659l-15.806-.007v18.384L158.431 57.84h-9.559v25.674h-22.768v-6.562h15.997v-6.754h-15.997V64.93h17.242v-7.089h-27.542v33.195H158.5V72.75l12.454 18.286h9.675V59.447h7.729v-6.659h6.658v-8.256l-6.659-.001z" fill="#006db1"/></svg>
